<?xml version="1.0" encoding="utf-8"?>
<!-- Generator: Adobe Illustrator 22.0.0, SVG Export Plug-In . SVG Version: 6.00 Build 0)  -->
<svg version="1.1" id="Layer_1" xmlns="http://www.w3.org/2000/svg" xmlns:xlink="http://www.w3.org/1999/xlink" x="0px" y="0px"
	 viewBox="0 0 785.9 1184.8" style="enable-background:new 0 0 785.9 1184.8;" xml:space="preserve">
<style type="text/css">
	.st0{fill:#0168C4;}
	.st1{fill:#FFD3E5;}
	.st2{fill:#FBE300;}
	.st3{fill:#11BFAB;}
</style>
<polygon class="st0" points="361.1,728.9 331,700.5 442.5,582 535.2,669.2 506.9,699.3 444.3,640.4 "/>
<path class="st1" d="M717.8,155.1c-17,17.5-39.9,27.3-64.3,27.6s-47.5-8.9-64.9-25.9c-17.5-17-27.3-39.9-27.6-64.3
	c-0.3-24.4,8.9-47.5,25.9-64.9c35.2-36.1,93.1-36.8,129.2-1.6L731,40.3l-65.5,67.2l-29.6-28.9l33.5-34.4
	c-17.9-6.4-38.7-2.3-52.8,12.1c-9.3,9.6-14.4,22.2-14.2,35.5c0.2,13.4,5.5,25.9,15.1,35.2c9.6,9.3,22.2,14.4,35.5,14.2
	c13.4-0.2,25.9-5.5,35.2-15.1L717.8,155.1z"/>
<polygon class="st2" points="761.9,407.2 657.4,472 709.5,360.7 668.3,341.4 592.3,504 612,521.5 612,521.5 633.3,540.5 
	785.9,445.9 "/>
<rect x="25.6" y="316.4" transform="matrix(0.8558 -0.5173 0.5173 0.8558 -158.2831 110.2937)" class="st2" width="186.2" height="45.5"/>
<path class="st3" d="M322,586c-54.4,0-98.7-44.3-98.7-98.7s44.3-98.7,98.7-98.7s98.7,44.3,98.7,98.7S376.4,586,322,586z M322,434.2
	c-29.3,0-53.2,23.9-53.2,53.2c0,29.3,23.9,53.2,53.2,53.2s53.2-23.9,53.2-53.2C375.2,458,351.4,434.2,322,434.2z"/>
<rect x="100.5" y="525.3" transform="matrix(0.7161 -0.698 0.698 0.7161 -396.6668 261.5877)" class="st1" width="45.5" height="186.2"/>
<path class="st3" d="M474.5,1165.1l1.1-2.6c13.1-30.5-1.1-66-31.7-79.1c-14.8-6.3-31.2-6.5-46.1-0.5c-14.9,6-26.6,17.4-33,32.2
	l-39.4-16.9c10.8-25.3,30.9-44.9,56.4-55.1c25.6-10.2,53.6-9.9,78.9,0.9c51,21.8,75.4,80.1,55.8,131.5l0,0.2l-1.5,3.6
	c-0.8,1.8-1.4,3.6-2,5.4"/>
<path class="st0" d="M98.7,1138c-54.4,0-98.7-44.3-98.7-98.7s44.3-98.7,98.7-98.7s98.7,44.3,98.7,98.7S153.1,1138,98.7,1138z
	 M98.7,986.2c-29.3,0-53.2,23.9-53.2,53.2c0,29.3,23.9,53.2,53.2,53.2s53.2-23.9,53.2-53.2C151.8,1010,128,986.2,98.7,986.2z"/>
</svg>
