<svg enable-background="new 16.8 0 66.3 130.6" viewBox="16.8 0 66.3 130.6" xmlns="http://www.w3.org/2000/svg"><path d="m47.3 71.5-2.5-2.4 9.4-10 7.8 7.4-2.4 2.5-5.3-4.9z" fill="#0168c4"/><path d="m77.4 23.1c-1.4 1.5-3.4 2.3-5.4 2.3-2.1 0-4-.8-5.5-2.2s-2.3-3.4-2.3-5.4c0-2.1.8-4 2.2-5.5 3-3 7.9-3.1 10.9-.1l1.3 1.2-5.6 5.7-2.5-2.4 2.8-2.9c-1.5-.5-3.3-.2-4.5 1-.8.8-1.2 1.9-1.2 3s.5 2.2 1.3 3 1.9 1.2 3 1.2 2.2-.5 3-1.3z" fill="#ffd3e5"/><path d="m81.1 44.4-8.8 5.4 4.4-9.4-3.5-1.6-6.4 13.7 1.7 1.5 1.8 1.6 12.9-8z" fill="#fbe300"/><path d="m19 36.7h15.7v3.8h-15.7z" fill="#fbe300" transform="matrix(-.8558 .5173 -.5173 -.8558 69.82 57.7854)"/><path d="m44 59.5c-4.6 0-8.3-3.7-8.3-8.3s3.7-8.3 8.3-8.3 8.3 3.7 8.3 8.3-3.7 8.3-8.3 8.3zm0-12.9c-2.5 0-4.5 2-4.5 4.5s2 4.5 4.5 4.5 4.5-2 4.5-4.5c0-2.4-2-4.5-4.5-4.5z" fill="#11bfab"/><path d="m25.3 54.3h3.8v15.7h-3.8z" fill="#ffd3e5" transform="matrix(-.7161 .698 -.698 -.7161 90.1501 87.7209)"/><path d="m56.9 128.9.1-.2c1.1-2.6-.1-5.6-2.7-6.7-1.2-.5-2.6-.5-3.9 0s-2.2 1.5-2.8 2.7l-3.3-1.4c.9-2.1 2.6-3.8 4.8-4.7s4.5-.8 6.7.1c4.3 1.8 6.4 6.8 4.7 11.1l-.1.3c-.1.2-.1.3-.2.5" fill="#11bfab"/><path d="m25.2 126.7c-4.6 0-8.3-3.7-8.3-8.3s3.7-8.3 8.3-8.3 8.3 3.7 8.3 8.3-3.7 8.3-8.3 8.3zm0-12.9c-2.5 0-4.5 2-4.5 4.5s2 4.5 4.5 4.5 4.5-2 4.5-4.5c-.1-2.4-2.1-4.5-4.5-4.5z" fill="#0168c4"/></svg>