<svg height="899.1" viewBox="0 0 558.6 899.1" width="558.6" xmlns="http://www.w3.org/2000/svg"><path d="m41.9 899.1c-20.5-13.2-34.6-33.7-39.8-57.5s-.7-48.3 12.6-68.8c13.2-20.5 33.7-34.6 57.5-39.8 23.9-5.1 48.3-.7 68.8 12.6 42.3 27.3 54.5 84 27.2 126.3l-11.2 17.4-78.9-50.9 22.4-34.8 40.4 26.1c2.8-18.8-5.4-38.4-22.3-49.3-11.2-7.2-24.6-9.7-37.7-6.9s-24.2 10.5-31.5 21.8c-7.2 11.2-9.7 24.6-6.9 37.7s10.5 24.2 21.8 31.5z" fill="#ffd3e5"/><path d="m510.9 516.7 1-2.6c11.7-31.1-4-65.9-35-77.6-15-5.7-31.4-5.2-46.1 1.4s-25.9 18.5-31.6 33.6l-40.1-15.2c9.7-25.8 28.9-46.2 54-57.5s53.1-12.2 78.9-2.4c51.9 19.6 78.7 76.8 61.3 129v.2l-1.4 3.7c-.7 1.8-1.3 3.6-1.8 5.5" fill="#11bfab"/><path d="m426.166 680.004 129.968 133.336-32.583 31.76-129.967-133.338zm-233.066-255.104c-54.4 0-98.7-44.3-98.7-98.7s44.3-98.7 98.7-98.7 98.7 44.3 98.7 98.7-44.3 98.7-98.7 98.7zm0-151.8c-29.3 0-53.2 23.9-53.2 53.2s23.9 53.2 53.2 53.2 53.2-23.9 53.2-53.2-23.9-53.2-53.2-53.2z" fill="#fbe300"/><path d="m381.4 223.4c-56.8-58.9-56-152.1 1.8-207.9l16-15.5 72.6 75.2-32.1 31-39.8-41.2c-25.1 38.8-20.6 91.9 13.6 127.4z" fill="#abd7f0"/><g fill="#0168c4"><path d="m223.1 538.1 24.9-13.9 128.3 125.6-31.8 32.5-116.2-113.7 7.5-7.6z"/><path d="m200 550.9 25-13.9 12.7 22.9 10.4-2.3 35.2 158.7-44.4 9.9z"/></g></svg>