<?xml version="1.0" encoding="utf-8"?>
<!-- Generator: Adobe Illustrator 18.0.0, SVG Export Plug-In . SVG Version: 6.00 Build 0)  -->
<!DOCTYPE svg PUBLIC "-//W3C//DTD SVG 1.1//EN" "http://www.w3.org/Graphics/SVG/1.1/DTD/svg11.dtd">
<svg version="1.1" id="Layer_1" xmlns="http://www.w3.org/2000/svg" xmlns:xlink="http://www.w3.org/1999/xlink" x="0px" y="0px"
	 viewBox="16.8 0 66.3 130.6" enable-background="new 16.8 0 66.3 130.6" xml:space="preserve">
<polygon fill="#0168C4" points="47.3,71.5 44.8,69.1 54.2,59.1 62,66.5 59.6,69 54.3,64.1 "/>
<path fill="#FFD3E5" d="M77.4,23.1c-1.4,1.5-3.4,2.3-5.4,2.3c-2.1,0-4-0.8-5.5-2.2c-1.5-1.4-2.3-3.4-2.3-5.4c0-2.1,0.8-4,2.2-5.5
	c3-3,7.9-3.1,10.9-0.1l1.3,1.2L73,19.1l-2.5-2.4l2.8-2.9c-1.5-0.5-3.3-0.2-4.5,1c-0.8,0.8-1.2,1.9-1.2,3c0,1.1,0.5,2.2,1.3,3
	c0.8,0.8,1.9,1.2,3,1.2c1.1,0,2.2-0.5,3-1.3L77.4,23.1z"/>
<polygon fill="#FBE300" points="81.1,44.4 72.3,49.8 76.7,40.4 73.2,38.8 66.8,52.5 68.5,54 68.5,54 70.3,55.6 83.2,47.6 "/>
<rect x="19" y="36.7" transform="matrix(-0.8558 0.5173 -0.5173 -0.8558 69.82 57.7854)" fill="#FBE300" width="15.7" height="3.8"/>
<path fill="#11BFAB" d="M44,59.5c-4.6,0-8.3-3.7-8.3-8.3s3.7-8.3,8.3-8.3s8.3,3.7,8.3,8.3S48.6,59.5,44,59.5z M44,46.6
	c-2.5,0-4.5,2-4.5,4.5s2,4.5,4.5,4.5s4.5-2,4.5-4.5C48.5,48.7,46.5,46.6,44,46.6z"/>
<rect x="25.3" y="54.3" transform="matrix(-0.7161 0.698 -0.698 -0.7161 90.1501 87.7209)" fill="#FFD3E5" width="3.8" height="15.7"/>
<path fill="#11BFAB" d="M56.9,128.9l0.1-0.2c1.1-2.6-0.1-5.6-2.7-6.7c-1.2-0.5-2.6-0.5-3.9,0c-1.3,0.5-2.2,1.5-2.8,2.7l-3.3-1.4
	c0.9-2.1,2.6-3.8,4.8-4.7c2.2-0.9,4.5-0.8,6.7,0.1c4.3,1.8,6.4,6.8,4.7,11.1v0l-0.1,0.3c-0.1,0.2-0.1,0.3-0.2,0.5"/>
<path fill="#0168C4" d="M25.2,126.7c-4.6,0-8.3-3.7-8.3-8.3s3.7-8.3,8.3-8.3s8.3,3.7,8.3,8.3S29.8,126.7,25.2,126.7z M25.2,113.8
	c-2.5,0-4.5,2-4.5,4.5s2,4.5,4.5,4.5s4.5-2,4.5-4.5C29.6,115.9,27.6,113.8,25.2,113.8z"/>
</svg>
