<svg height="1172.1" viewBox="0 0 673.1 1172.1" width="673.1" xmlns="http://www.w3.org/2000/svg"><path d="m98.7 1052c-54.4 0-98.7-44.3-98.7-98.7s44.3-98.7 98.7-98.7 98.7 44.3 98.7 98.7-44.3 98.7-98.7 98.7zm0-151.9c-29.3 0-53.2 23.9-53.2 53.2s23.9 53.2 53.2 53.2 53.2-23.9 53.2-53.2c-.1-29.3-23.9-53.2-53.2-53.2z" fill="#abd7f0"/><path d="m319 1129.5 2.7-.7c32.2-7.9 52-40.6 44.1-72.9-3.8-15.6-13.5-28.8-27.3-37.1s-29.9-10.8-45.6-7l-10.2-41.6c26.7-6.6 54.4-2.3 78 11.9 23.6 14.3 40.2 36.8 46.7 63.6 13.2 53.9-18.7 108.4-71.5 123.7l-.2.1-3.8 1c-1.9.5-3.7 1-5.5 1.6" fill="#11bfab"/><path d="m499 682.3-30.1-28.3 111.5-118.6 92.7 87.2-28.3 30.2-62.6-58.9z" fill="#ffd3e5"/><path d="m538.2 174.9c-22.3-10-39.4-28-48.1-50.8s-8-47.6 1.9-69.9c10-22.3 28-39.4 50.8-48.1 22.8-8.7 47.6-8 69.9 1.9 46 20.6 66.7 74.7 46.1 120.7l-8.4 18.9-85.7-38.3 16.9-37.8 43.9 19.6c-.1-19-11.1-37.1-29.6-45.4-12.2-5.5-25.8-5.8-38.3-1.1-12.5 4.8-22.4 14.1-27.8 26.3-5.5 12.2-5.8 25.8-1.1 38.3 4.8 12.5 14.1 22.4 26.3 27.8z" fill="#fbe300"/><g fill="#fbe300"><path d="m306.2 825.3-18.3-21.9 99.4-149.5 37.9 25.2-90 135.4-8.9-5.9z"/><path d="m323.1 845.6-18.3-21.9 20.1-16.8-4.2-9.8 149.4-64.2 17.9 41.8z"/></g><path d="m186.26 264.2 159.35-96.322 23.537 38.939-159.35 96.321z" fill="#ffd3e5"/><path d="m436 470.5c-54.4 0-98.7-44.3-98.7-98.7s44.3-98.7 98.7-98.7 98.7 44.3 98.7 98.7-44.3 98.7-98.7 98.7zm0-151.9c-29.3 0-53.2 23.9-53.2 53.2s23.9 53.2 53.2 53.2 53.2-23.9 53.2-53.2-23.9-53.2-53.2-53.2z" fill="#0168c4"/><path d="m155 498.903 129.97 133.338-32.584 31.759-129.968-133.338z" fill="#11bfab"/></svg>