<svg xmlns="http://www.w3.org/2000/svg" width="673.1" height="1172.1" viewBox="0 0 673.1 1172.1">
  <style>

  </style>
  <path fill="#ABD7F0" d="M98.7 1052C44.3 1052 0 1007.7 0 953.3s44.3-98.7 98.7-98.7 98.7 44.3 98.7 98.7-44.3 98.7-98.7 98.7zm0-151.9c-29.3 0-53.2 23.9-53.2 53.2 0 29.3 23.9 53.2 53.2 53.2s53.2-23.9 53.2-53.2c-.1-29.3-23.9-53.2-53.2-53.2z"/>
  <path fill="#11BFAB" d="M319 1129.5l2.7-.7c32.2-7.9 52-40.6 44.1-72.9-3.8-15.6-13.5-28.8-27.3-37.1s-29.9-10.8-45.6-7l-10.2-41.6c26.7-6.6 54.4-2.3 78 11.9 23.6 14.3 40.2 36.8 46.7 63.6 13.2 53.9-18.7 108.4-71.5 123.7l-.2.1-3.8 1c-1.9.5-3.7 1-5.5 1.6"/>
  <path fill="#FFD3E5" d="M499 682.3L468.9 654l111.5-118.6 92.7 87.2-28.3 30.2-62.6-58.9z"/>
  <path fill="#FBE300" d="M538.2 174.9c-22.3-10-39.4-28-48.1-50.8-8.7-22.8-8-47.6 1.9-69.9 10-22.3 28-39.4 50.8-48.1 22.8-8.7 47.6-8 69.9 1.9 46 20.6 66.7 74.7 46.1 120.7l-8.4 18.9-85.7-38.3 16.9-37.8 43.9 19.6c-.1-19-11.1-37.1-29.6-45.4-12.2-5.5-25.8-5.8-38.3-1.1-12.5 4.8-22.4 14.1-27.8 26.3-5.5 12.2-5.8 25.8-1.1 38.3 4.8 12.5 14.1 22.4 26.3 27.8l-16.8 37.9z"/>
  <g fill="#FBE300">
    <path d="M306.2 825.3l-18.3-21.9 99.4-149.5 37.9 25.2-90 135.4-8.9-5.9z"/>
    <path d="M323.1 845.6l-18.3-21.9 20.1-16.8-4.2-9.8 149.4-64.2 17.9 41.8z"/>
  </g>
  <path fill="#FFD3E5" d="M186.26 264.2l159.35-96.322 23.537 38.939-159.35 96.321z"/>
  <path fill="#0168C4" d="M436 470.5c-54.4 0-98.7-44.3-98.7-98.7s44.3-98.7 98.7-98.7 98.7 44.3 98.7 98.7-44.3 98.7-98.7 98.7zm0-151.9c-29.3 0-53.2 23.9-53.2 53.2S406.7 425 436 425c29.3 0 53.2-23.9 53.2-53.2s-23.9-53.2-53.2-53.2z"/>
  <path fill="#11BFAB" d="M155 498.903l129.97 133.338L252.386 664 122.418 530.662z"/>
</svg>
