<svg xmlns="http://www.w3.org/2000/svg" width="558.6" height="899.1" viewBox="0 0 558.6 899.1">
  <path fill="#FFD3E5" d="M41.9 899.1c-20.5-13.2-34.6-33.7-39.8-57.5s-.7-48.3 12.6-68.8c13.2-20.5 33.7-34.6 57.5-39.8 23.9-5.1 48.3-.7 68.8 12.6 42.3 27.3 54.5 84 27.2 126.3L157 889.3l-78.9-50.9 22.4-34.8 40.4 26.1c2.8-18.8-5.4-38.4-22.3-49.3-11.2-7.2-24.6-9.7-37.7-6.9-13.1 2.8-24.2 10.5-31.5 21.8-7.2 11.2-9.7 24.6-6.9 37.7 2.8 13.1 10.5 24.2 21.8 31.5l-22.4 34.6z"/>
  <path fill="#11BFAB" d="M510.9 516.7l1-2.6c11.7-31.1-4-65.9-35-77.6-15-5.7-31.4-5.2-46.1 1.4-14.7 6.6-25.9 18.5-31.6 33.6l-40.1-15.2c9.7-25.8 28.9-46.2 54-57.5 25.1-11.3 53.1-12.2 78.9-2.4 51.9 19.6 78.7 76.8 61.3 129v.2l-1.4 3.7c-.7 1.8-1.3 3.6-1.8 5.5"/>
  <path fill="#FBE300" d="M426.166 680.004L556.134 813.34l-32.583 31.76-129.967-133.338zM193.1 424.9c-54.4 0-98.7-44.3-98.7-98.7s44.3-98.7 98.7-98.7 98.7 44.3 98.7 98.7-44.3 98.7-98.7 98.7zm0-151.8c-29.3 0-53.2 23.9-53.2 53.2s23.9 53.2 53.2 53.2 53.2-23.9 53.2-53.2-23.9-53.2-53.2-53.2z"/>
  <path fill="#ABD7F0" d="M381.4 223.4c-56.8-58.9-56-152.1 1.8-207.9l16-15.5 72.6 75.2-32.1 31L399.9 65c-25.1 38.8-20.6 91.9 13.6 127.4l-32.1 31z"/>
  <g fill="#0168C4">
    <path d="M223.1 538.1l24.9-13.9 128.3 125.6-31.8 32.5-116.2-113.7 7.5-7.6z"/>
    <path d="M200 550.9l25-13.9 12.7 22.9 10.4-2.3 35.2 158.7-44.4 9.9z"/>
  </g>
</svg>
