<svg height="34" viewBox="0 0 37.2 34" width="37.2" xmlns="http://www.w3.org/2000/svg"><g fill="#6d6d6d"><path d="m14 17.1s0-.1-.1-.1c0 0 0-.1-.1-.1l-.1-.1s-.1 0-.2-.1h-.2c-.3 0-.6 0-.8.2l-.1.1s0 .1-.1.1v.8s0 .1.1.1c0 0 0 .1.1.1.1.1.2.1.3.2.2.1.3.1.4.1.2 0 .5-.1.6-.3l.1-.1s0-.1.1-.1v-.2-.2-.2zm5.4 0s0-.1-.1-.1-.1-.1-.1-.1l-.1-.1s-.1 0-.1-.1h-.6-.2s-.1 0-.2.1l-.1.1-.1.1s0 .1-.1.1v.4c0 .2.1.5.3.6.2.2.4.3.6.3.1 0 .2 0 .4-.1.1 0 .2-.1.3-.2l.1-.1s0-.1.1-.1v-.2-.2-.2s0-.1-.1-.2zm5.9 0s0-.1-.1-.1l-.1-.1-.1-.1s-.1 0-.1-.1h-.6-.2s-.1 0-.1.1l-.1.1-.1.1s0 .1-.1.1v.8s0 .1.1.1.1.1.1.1c.1.1.2.1.3.2s.2.1.4.1.5-.1.6-.3l.1-.1s0-.1.1-.1 0-.1 0-.2v-.2-.2s0-.1-.1-.2zm5.5 0s0-.1-.1-.1l-.1-.1-.1-.1s-.1 0-.1-.1h-.6-.2s-.1 0-.1.1l-.1.1-.1.1s0 .1-.1.1v.8s0 .1.1.1l.1.1c.1.2.4.3.6.3.1 0 .2 0 .4-.1.1 0 .2-.1.3-.2l.1-.1s0-.1.1-.1 0-.1 0-.2v-.2-.2c-.1 0-.1-.1-.1-.2zm-22.7 5s0-.1-.1-.1c0 0 0-.1-.1-.1l-.1-.1s-.1 0-.1-.1h-.2c-.3 0-.6 0-.8.2l-.1.1s0 .1-.1.1v.8s0 .1.1.1.1.1.1.1l.1.1s.1 0 .1.1h.4c.1 0 .2 0 .4-.1.1 0 .2-.1.3-.2-.1 0 0 0 0-.1 0 0 0-.1.1-.1v-.2-.2-.2zm5.9 0s0-.1-.1-.1c0 0 0-.1-.1-.1-.4-.4-1-.4-1.3 0l-.1.1s0 .1-.1.1v.8s0 .1.1.1l.1.1c.1.1.2.1.3.2s.2.1.3.1c.2 0 .5-.1.6-.3l.1-.1s0-.1.1-.1v-.2-.2-.2c0-.1.1-.1.1-.2zm5.4 0s0-.1-.1-.1-.1-.1-.1-.1c-.2-.2-.5-.3-.8-.2h-.2s-.1 0-.2.1l-.1.1-.1.1s0 .1-.1.1v.8s0 .1.1.1l.1.1c.1.1.2.1.3.2s.2.1.4.1.5-.1.6-.3l.1-.1s0-.1.1-.1 0-.1 0-.2v-.2-.2c0-.1.1-.1 0-.2zm5.9 0s0-.1-.1-.1l-.1-.1c-.3-.4-1-.4-1.3 0l-.1.1s0 .1-.1.1v.8s0 .1.1.1.1.1.1.1c.1.2.4.3.6.3.1 0 .2 0 .4-.1.1 0 .2-.1.3-.2l.1-.1s0-.1.1-.1 0-.1 0-.2v-.2-.2c.1-.1.1-.1 0-.2zm5.5 0s0-.1-.1-.1l-.1-.1c-.3-.4-1-.4-1.3 0l-.1.1s0 .1-.1.1v.8s0 .1.1.1.1.1.1.1c.2.2.4.3.6.3s.5-.1.6-.3l.1-.1s0-.1.1-.1 0-.1 0-.2v-.2-.2c.1-.1.1-.1.1-.2zm-24.2 4.7c-.2.2-.3.4-.3.6v.4c0 .1.1.2.2.3s.2.1.3.2c.2.1.3.1.4.1.2 0 .5-.1.6-.3.2-.1.2-.2.3-.3 0-.1.1-.2.1-.4s-.1-.5-.3-.6c-.3-.3-1-.3-1.3 0zm6.4-.2h-.2s-.1 0-.1.1l-.1.1c-.2.2-.3.5-.3.7v.4c0 .1.1.2.2.3s.2.1.3.2.2.1.4.1c.1 0 .2 0 .4-.1.1 0 .2-.1.3-.2s.1-.2.2-.3c0-.1.1-.2.1-.4s-.1-.5-.3-.6c-.3-.3-.6-.4-.9-.3zm5 .2c-.2.2-.3.4-.3.6s.1.5.3.6c.1.1.2.1.3.2s.2.1.4.1c.1 0 .2 0 .4-.1.1 0 .2-.1.3-.2s.1-.2.2-.3v-.4c0-.2-.1-.5-.3-.6-.4-.2-1-.2-1.3.1zm7.3.3s0-.1-.1-.1l-.1-.1-.1-.1s-.1 0-.1-.1h-.2c-.3 0-.6 0-.8.2s-.3.4-.3.6.1.5.3.6c.1.1.2.1.3.2s.2.1.4.1.5-.1.6-.3c.1-.1.1-.2.2-.3s.1-.2.1-.4v-.2c-.1 0-.1-.1-.2-.1z"/><path d="m36.3 3.6h-5.4v-2.7c0-.5-.4-.9-.9-.9s-.9.4-.9.9v2.7h-20.9v-2.7c0-.5-.4-.9-.9-.9s-.9.4-.9.9v2.7h-5.5c-.5 0-.9.4-.9.9v28.6c0 .5.4.9.9.9h35.4c.5 0 .9-.4.9-.9v-28.6c0-.5-.4-.9-.9-.9zm-29.9 1.8v2.3c0 .5.4.9.9.9s.9-.4.9-.9v-2.3h20.9v2.3c0 .5.4.9.9.9s.9-.4.9-.9v-2.3h4.5v5.9h-33.6v-5.9zm-4.6 26.8v-19h33.6v19.1h-33.6z"/></g></svg>