<svg xmlns="http://www.w3.org/2000/svg" width="27.6" height="27.6" viewBox="0 0 27.6 27.6"><path fill="#6D6D6D" d="M19.1 27.6c-3.6 0-7.7-2.3-12.3-6.9C2.3 16.2 0 12 0 8.3c0-2.4.9-4.5 2.8-6.4C3.6 1.1 4.6.5 5.7.1c.7-.2 1.4 0 1.8.6L11 5.5c.5.7.4 1.6-.3 2.1L7.9 9.8c-.2.2-.3.5-.1.7 1.2 1.9 2.6 3.6 4.1 5.2 1.6 1.6 3.3 3 5.2 4.1.2.1.5.1.7-.1l2.2-2.8c.5-.6 1.4-.8 2.1-.3l4.9 3.5c.6.4.8 1.1.6 1.8-.2.5-.5 1.1-.8 1.6-.3.5-.7.9-1.1 1.3-.2.2-.4.4-.7.6-1.9 1.5-3.8 2.2-5.9 2.2zM6.2 1.5c-.9.4-1.7.9-2.3 1.5-1.6 1.6-2.4 3.3-2.4 5.3 0 3.3 2.1 7.1 6.4 11.4 8.6 8.5 13.1 6.9 16.1 4.5.2-.2.4-.3.6-.5.3-.3.6-.7.9-1.1.3-.4.5-.8.6-1.3l-4.9-3.5-2.2 2.8c-.6.8-1.8 1-2.7.5-2-1.2-3.8-2.7-5.5-4.4-1.7-1.6-3.1-3.5-4.4-5.5-.5-.8-.3-2 .6-2.6l2.8-2.2-3.6-4.9z"/></svg>