<svg xmlns="http://www.w3.org/2000/svg" width="37.2" height="34" viewBox="0 0 37.2 34"><g fill="#6D6D6D"><path d="M14 17.1s0-.1-.1-.1c0 0 0-.1-.1-.1l-.1-.1s-.1 0-.2-.1h-.2c-.3 0-.6 0-.8.2l-.1.1s0 .1-.1.1v.8s0 .1.1.1c0 0 0 .1.1.1.1.1.2.1.3.2.2.1.3.1.4.1.2 0 .5-.1.6-.3l.1-.1s0-.1.1-.1v-.2-.2-.2-.2zM19.4 17.1s0-.1-.1-.1-.1-.1-.1-.1l-.1-.1s-.1 0-.1-.1H18.4h-.2s-.1 0-.2.1l-.1.1-.1.1s0 .1-.1.1v.4c0 .2.1.5.3.6.2.2.4.3.6.3.1 0 .2 0 .4-.1.1 0 .2-.1.3-.2l.1-.1s0-.1.1-.1v-.2-.2-.2s0-.1-.1-.2zM25.3 17.1s0-.1-.1-.1l-.1-.1-.1-.1s-.1 0-.1-.1H24.3h-.2s-.1 0-.1.1l-.1.1-.1.1s0 .1-.1.1v.8s0 .1.1.1.1.1.1.1c.1.1.2.1.3.2.1.1.2.1.4.1s.5-.1.6-.3l.1-.1s0-.1.1-.1 0-.1 0-.2v-.2-.2s0-.1-.1-.2zM30.8 17.1s0-.1-.1-.1l-.1-.1-.1-.1s-.1 0-.1-.1H29.8h-.2s-.1 0-.1.1l-.1.1-.1.1s0 .1-.1.1v.8s0 .1.1.1l.1.1c.1.2.4.3.6.3.1 0 .2 0 .4-.1.1 0 .2-.1.3-.2l.1-.1s0-.1.1-.1 0-.1 0-.2v-.2-.2c-.1 0-.1-.1-.1-.2zM8.1 22.1s0-.1-.1-.1c0 0 0-.1-.1-.1l-.1-.1s-.1 0-.1-.1h-.2c-.3 0-.6 0-.8.2l-.1.1s0 .1-.1.1v.8s0 .1.1.1.1.1.1.1l.1.1s.1 0 .1.1h.4c.1 0 .2 0 .4-.1.1 0 .2-.1.3-.2-.1 0 0 0 0-.1 0 0 0-.1.1-.1v-.2-.2-.2-.1zM14 22.1s0-.1-.1-.1c0 0 0-.1-.1-.1-.4-.4-1-.4-1.3 0l-.1.1s0 .1-.1.1v.8s0 .1.1.1l.1.1c.1.1.2.1.3.2.1.1.2.1.3.1.2 0 .5-.1.6-.3l.1-.1s0-.1.1-.1v-.2-.2-.2c0-.1.1-.1.1-.2zM19.4 22.1s0-.1-.1-.1-.1-.1-.1-.1c-.2-.2-.5-.3-.8-.2h-.2s-.1 0-.2.1l-.1.1-.1.1s0 .1-.1.1v.8s0 .1.1.1l.1.1c.1.1.2.1.3.2.1.1.2.1.4.1s.5-.1.6-.3l.1-.1s0-.1.1-.1 0-.1 0-.2v-.2-.2c0-.1.1-.1 0-.2zM25.3 22.1s0-.1-.1-.1l-.1-.1c-.3-.4-1-.4-1.3 0l-.1.1s0 .1-.1.1v.8s0 .1.1.1.1.1.1.1c.1.2.4.3.6.3.1 0 .2 0 .4-.1.1 0 .2-.1.3-.2l.1-.1s0-.1.1-.1 0-.1 0-.2v-.2-.2c.1-.1.1-.1 0-.2zM30.8 22.1s0-.1-.1-.1l-.1-.1c-.3-.4-1-.4-1.3 0l-.1.1s0 .1-.1.1v.8s0 .1.1.1.1.1.1.1c.2.2.4.3.6.3s.5-.1.6-.3l.1-.1s0-.1.1-.1 0-.1 0-.2v-.2-.2c.1-.1.1-.1.1-.2zM6.6 26.8c-.2.2-.3.4-.3.6v.4c0 .1.1.2.2.3.1.1.2.1.3.2.2.1.3.1.4.1.2 0 .5-.1.6-.3.2-.1.2-.2.3-.3 0-.1.1-.2.1-.4s-.1-.5-.3-.6c-.3-.3-1-.3-1.3 0zM13 26.6h-.2s-.1 0-.1.1l-.1.1c-.2.2-.3.5-.3.7v.4c0 .1.1.2.2.3.1.1.2.1.3.2.1.1.2.1.4.1.1 0 .2 0 .4-.1.1 0 .2-.1.3-.2.1-.1.1-.2.2-.3 0-.1.1-.2.1-.4s-.1-.5-.3-.6c-.3-.3-.6-.4-.9-.3zM18 26.8c-.2.2-.3.4-.3.6s.1.5.3.6c.1.1.2.1.3.2.1.1.2.1.4.1.1 0 .2 0 .4-.1.1 0 .2-.1.3-.2.1-.1.1-.2.2-.3v-.4c0-.2-.1-.5-.3-.6-.4-.2-1-.2-1.3.1zM25.3 27.1s0-.1-.1-.1l-.1-.1-.1-.1s-.1 0-.1-.1h-.2c-.3 0-.6 0-.8.2-.2.2-.3.4-.3.6s.1.5.3.6c.1.1.2.1.3.2.1.1.2.1.4.1s.5-.1.6-.3c.1-.1.1-.2.2-.3.1-.1.1-.2.1-.4v-.2c-.1 0-.1-.1-.2-.1z"/><path d="M36.3 3.6h-5.4V.9c0-.5-.4-.9-.9-.9s-.9.4-.9.9v2.7H8.2V.9c0-.5-.4-.9-.9-.9s-.9.4-.9.9v2.7H.9c-.5 0-.9.4-.9.9v28.6c0 .5.4.9.9.9h35.4c.5 0 .9-.4.9-.9V4.5c0-.5-.4-.9-.9-.9zM6.4 5.4v2.3c0 .5.4.9.9.9s.9-.4.9-.9V5.4h20.9v2.3c0 .5.4.9.9.9s.9-.4.9-.9V5.4h4.5v5.9H1.8V5.4h4.6zM1.8 32.2v-19h33.6v19.1H1.8z"/></g></svg>
