<svg xmlns="http://www.w3.org/2000/svg" width="19.2" height="24" viewBox="0 0 19.2 24"><g fill="#6D6D6D"><path d="M9.6.2C4.4.2.2 4.4.2 9.6c0 3.3 1.6 6.8 4.6 10C7 22 9.2 23.4 9.4 23.5l.3.2.3-.2c.1-.1 2.3-1.6 4.5-4 3-3.3 4.6-6.7 4.6-9.9C19 4.5 14.8.2 9.6.2zm0 22.2c-.7-.5-2.4-1.7-4-3.5-1.9-2.1-4.2-5.4-4.2-9.3C1.3 5 5 1.3 9.6 1.3s8.3 3.7 8.3 8.3c0 6.4-6.8 11.7-8.3 12.8zm0-16.9c-2.1 0-3.7 1.7-3.7 3.7S7.5 13 9.6 13s3.7-1.7 3.7-3.7-1.6-3.8-3.7-3.8zm0 6.4C8.2 11.9 7 10.7 7 9.3s1.2-2.7 2.7-2.7 2.7 1.2 2.7 2.7-1.3 2.6-2.8 2.6z"/><path d="M9.6 24l-.4-.3c-.6-.4-2.6-1.7-4.6-3.9C1.6 16.5 0 13 0 9.6 0 4.3 4.3 0 9.6 0s9.6 4.3 9.6 9.6c0 3.3-1.6 6.7-4.6 10.1-2.3 2.5-4.5 4-4.5 4l-.5.3zM9.6.5C4.6.5.5 4.6.5 9.6c0 3.3 1.6 6.7 4.5 9.9 2 2.1 3.9 3.5 4.5 3.8l.2.1.1-.1s2.2-1.5 4.5-4c3-3.2 4.5-6.6 4.5-9.7-.1-5-4.2-9.1-9.2-9.1zm0 22.2l-.1-.1c-.6-.5-2.4-1.7-4.1-3.6-2-2.2-4.3-5.5-4.3-9.4 0-4.7 3.8-8.5 8.5-8.5s8.5 3.8 8.5 8.5c0 6.5-7 12-8.4 13l-.1.1zm0-21.1c-4.4 0-8 3.6-8 8 0 3.7 2.3 7 4.2 9.1 1.5 1.7 3.1 2.9 3.8 3.4 1.6-1.2 8-6.4 8-12.5 0-4.4-3.6-8-8-8zm0 11.7c-2.2 0-4-1.8-4-4s1.8-4 4-4 4 1.8 4 4-1.8 4-4 4zm0-7.5c-1.9 0-3.5 1.6-3.5 3.5s1.6 3.5 3.5 3.5 3.5-1.6 3.5-3.5c0-2-1.6-3.5-3.5-3.5zm0 6.4c-1.6 0-2.9-1.3-2.9-2.9 0-1.6 1.3-2.9 2.9-2.9s2.9 1.3 2.9 2.9c0 1.6-1.3 2.9-2.9 2.9zm0-5.3C8.3 6.9 7.2 8 7.2 9.3c0 1.3 1.1 2.4 2.4 2.4S12 10.6 12 9.3c0-1.3-1.1-2.4-2.4-2.4z"/></g></svg>